Coordinates
version=1
nRows=8
nColumns=63
inDegrees=yes

Units are S.I. units (second, meters, Newtons, ...)
If the header above contains a line with 'inDegrees', this indicates whether rotational values are in degrees (yes) or radians (no).

endheader
time	pelvis_tilt	pelvis_list	pelvis_rotation	pelvis_tx	pelvis_ty	pelvis_tz	hip_flexion_r	hip_adduction_r	hip_rotation_r	knee_angle_r	knee_angle_r_beta	ankle_angle_r	subtalar_angle_r	mtp_angle_r	hip_flexion_l	hip_adduction_l	hip_rotation_l	knee_angle_l	knee_angle_l_beta	ankle_angle_l	subtalar_angle_l	mtp_angle_l	L5_S1_Flex_Ext	L5_S1_Lat_Bending	L5_S1_axial_rotation	L4_L5_Flex_Ext	L4_L5_Lat_Bending	L4_L5_axial_rotation	L3_L4_Flex_Ext	L3_L4_Lat_Bending	L3_L4_axial_rotation	L2_L3_Flex_Ext	L2_L3_Lat_Bending	L2_L3_axial_rotation	L1_L2_Flex_Ext	L1_L2_Lat_Bending	L1_L2_axial_rotation	L1_T12_Flex_Ext	L1_T12_Lat_Bending	L1_T12_axial_rotation	Abs_r3	Abs_r2	Abs_r1	Abs_t1	Abs_t2	neck_flexion	neck_bending	neck_rotation	arm_flex_r	arm_add_r	arm_rot_r	elbow_flex_r	pro_sup_r	wrist_flex_r	wrist_dev_r	arm_flex_l	arm_add_l	arm_rot_l	elbow_flex_l	pro_sup_l	wrist_flex_l	wrist_dev_l
0.000000	3.613898	-3.632422	98.604793	0.019078	1.001142	0.666932	-0.786991	1.483135	5.922932	1.622168	0.028312	26.367584	-4.858627	0.000000	0.464848	-1.036407	10.348421	0.505062	0.008815	25.509128	-8.867906	0.000000	0.273151	-0.059631	-0.553238	0.507269	-0.079309	-0.587816	0.448760	-0.144987	-0.587816	0.312184	-0.144987	-0.484084	0.253648	-0.121600	-0.449506	0.156079	-0.092369	-0.414929	1.951091	-0.674559	-3.076946	0.000000	0.000000	27.714097	9.156767	4.887906	21.679967	-7.957402	80.559021	35.737407	9.672692	-7.732571	3.885007	15.715986	-11.183541	57.338151	43.048898	80.156047	0.013377	-1.581196
0.016667	4.184787	-4.040194	100.303771	0.015333	1.000005	0.669780	-0.021417	1.806447	4.877061	2.326704	0.040609	25.606829	-6.355091	0.000000	1.707702	-1.234938	11.662164	1.537577	0.026836	25.780896	-8.638909	0.000000	0.325971	0.037513	-0.830687	0.605361	0.049892	-0.882604	0.535538	0.091209	-0.882604	0.372552	0.091209	-0.726851	0.302697	0.076496	-0.674933	0.186260	0.058107	-0.623015	2.328379	0.424353	-4.620029	0.000000	0.000000	27.880488	9.198358	6.420504	21.436046	-7.415940	88.557162	34.047939	12.903791	-5.374538	1.266894	14.200727	-10.265180	57.361685	42.220435	76.765371	1.545041	-3.312521
0.033333	4.652980	-4.378125	101.734460	0.012225	0.999163	0.672196	0.632433	2.068653	3.958198	2.926897	0.051084	24.996010	-7.510992	0.000000	2.750864	-1.389950	12.690519	2.404677	0.041970	26.006718	-8.417952	0.000000	0.366797	0.114887	-1.068072	0.681179	0.152800	-1.134826	0.602611	0.279337	-1.134826	0.419212	0.279337	-0.934563	0.340608	0.234278	-0.867808	0.209588	0.177960	-0.801054	2.619994	1.299626	-5.940294	0.000000	0.000000	28.010308	9.211425	7.578811	21.198526	-7.089373	94.944021	32.847194	14.898726	-3.364472	-0.872968	12.870103	-9.562970	57.221880	41.678492	74.265690	2.846763	-4.594573
0.050000	5.026871	-4.652009	102.915212	0.009704	0.998583	0.674208	1.181616	2.274992	3.167283	3.428585	0.059840	24.519453	-8.365501	0.000000	3.608851	-1.505539	13.461981	3.118759	0.054433	26.189057	-8.210501	0.000000	0.396807	0.174308	-1.267629	0.736910	0.231830	-1.346856	0.651914	0.423813	-1.346856	0.453511	0.423813	-1.109176	0.368475	0.355449	-1.029949	0.226736	0.270003	-0.950722	2.834353	1.971809	-7.050173	0.000000	0.000000	28.107139	9.197190	8.401086	20.961668	-6.948735	99.830863	32.077650	15.818191	-1.679732	-2.581758	11.717369	-9.053168	56.945718	41.384562	72.555728	3.935566	-5.475681
0.066667	5.314852	-4.867635	103.864378	0.007721	0.998236	0.675841	1.633187	2.430702	2.505253	3.837605	0.066979	24.161484	-8.957789	0.000000	4.296182	-1.585796	14.005045	3.692218	0.064441	26.330377	-8.022023	0.000000	0.417180	0.217593	-1.431594	0.774745	0.289398	-1.521069	0.685385	0.529055	-1.521069	0.476795	0.529055	-1.252645	0.387394	0.443715	-1.163170	0.238377	0.337051	-1.073696	2.979877	2.461453	-7.962097	0.000000	0.000000	28.174558	9.156874	8.925585	20.719733	-6.965061	103.328956	31.681786	15.822880	-0.297676	-3.906654	10.735781	-8.712026	56.560185	41.300135	71.534207	4.828472	-6.004170
0.083333	5.525318	-5.030798	104.600312	0.006226	0.998091	0.677121	1.994204	2.541022	1.973044	4.159795	0.072602	23.906426	-9.327027	0.000000	4.827375	-1.634815	14.348205	4.137451	0.072212	26.433143	-7.857985	0.000000	0.429095	0.246557	-1.562202	0.796873	0.327921	-1.659839	0.704960	0.599479	-1.659839	0.490413	0.599479	-1.366926	0.398458	0.502780	-1.269289	0.245185	0.381917	-1.171651	3.064984	2.789106	-8.688497	0.000000	0.000000	28.216146	9.091701	9.190567	20.466983	-7.109386	105.549565	31.602080	15.073487	0.804337	-4.894836	9.918597	-8.515800	56.092264	41.386703	71.099849	5.542504	-6.228367
0.100000	5.666662	-5.147287	105.141364	0.005170	0.998117	0.678075	2.271723	2.611191	1.571597	4.400992	0.076812	23.738607	-9.512386	0.000000	5.216947	-1.656689	14.519955	4.466853	0.077961	26.499819	-7.723853	0.000000	0.433730	0.263018	-1.661687	0.805481	0.349815	-1.765542	0.712576	0.639503	-1.765542	0.495710	0.639503	-1.453976	0.402762	0.536347	-1.350121	0.247834	0.407416	-1.246265	3.098093	2.975318	-9.241805	0.000000	0.000000	28.235482	9.002891	9.234289	20.197679	-7.352745	106.603958	31.781011	13.730706	1.648948	-5.593481	9.259072	-8.440745	55.568940	41.605759	71.151378	6.094683	-6.196599
0.116667	5.747277	-5.222896	105.505888	0.004501	0.998283	0.678730	2.472801	2.646449	1.301848	4.567033	0.079710	23.642351	-9.553039	0.000000	5.479416	-1.655510	14.548791	4.692822	0.081905	26.532868	-7.625093	0.000000	0.432265	0.268793	-1.732285	0.802759	0.357495	-1.840553	0.710168	0.653543	-1.840553	0.494035	0.653543	-1.515750	0.401401	0.548122	-1.407482	0.246996	0.416360	-1.299214	3.087623	3.040639	-9.634452	0.000000	0.000000	28.236146	8.891667	9.095010	19.906083	-7.666172	106.603400	32.161058	11.955232	2.258798	-6.049769	8.750463	-8.463115	55.017198	41.918793	71.587516	6.502032	-5.957192
